<svg width="1000" height="1000" viewBox="0 0 32 32" fill="none" xmlns="http://www.w3.org/2000/svg">
<circle cx="16" cy="16" r="16" fill="#2C95FF"/>
<path d="M17.5633 23.2197L8.78042 14.4368C8.22724 13.8836 8.49486 12.9381 9.25591 12.7569L20.7834 10.0123C21.5082 9.83969 22.1604 10.4919 21.9879 11.2167L19.2432 22.7442C19.062 23.5053 18.1165 23.7729 17.5633 23.2197Z" fill="white"/>
<path d="M13.879 15.2927C14.2695 14.9022 14.9027 14.9022 15.2932 15.2927L16.7074 16.7069C17.0979 17.0975 17.0979 17.7306 16.7074 18.1212L12.4648 22.3638C12.0742 22.7543 11.4411 22.7543 11.0505 22.3638L9.63633 20.9496C9.2458 20.5591 9.2458 19.9259 9.63633 19.5354L13.879 15.2927Z" fill="white"/>
</svg>
