<svg width="22" height="22" viewBox="0 0 22 22" fill="none" xmlns="http://www.w3.org/2000/svg">
<path d="M10.1358 1.48358C10.5215 0.821311 11.4783 0.821311 11.864 1.48358L14.6575 6.27969C14.7988 6.52229 15.0356 6.69432 15.31 6.75374L20.7346 7.92842C21.4837 8.09063 21.7793 9.00055 21.2687 9.57206L17.5705 13.7109C17.3834 13.9203 17.293 14.1986 17.3213 14.4779L17.8804 20C17.9576 20.7626 17.1836 21.3249 16.4822 21.0159L11.4032 18.7777C11.1463 18.6645 10.8536 18.6645 10.5967 18.7777L5.51761 21.0159C4.81627 21.3249 4.04225 20.7626 4.11945 20L4.67856 14.4779C4.70684 14.1986 4.6164 13.9203 4.42934 13.7109L0.731196 9.57206C0.220542 9.00055 0.516194 8.09062 1.26525 7.92842L6.68986 6.75374C6.96425 6.69432 7.20102 6.52229 7.34233 6.27969L10.1358 1.48358Z" fill="#FFE455"/>
</svg>
