<svg width="22" height="21" viewBox="0 0 22 21" fill="none" xmlns="http://www.w3.org/2000/svg">
<path d="M10.5679 0.74835C10.7607 0.417217 11.2391 0.417217 11.432 0.74835L11.864 0.4967L11.432 0.74835L14.2255 5.54447C14.4374 5.90837 14.7926 6.16641 15.2042 6.25554L20.6288 7.43022C21.0033 7.51132 21.1511 7.96628 20.8958 8.25204L17.1977 12.3909C16.9171 12.7049 16.7814 13.1224 16.8238 13.5414L17.3829 19.0635C17.4215 19.4448 17.0345 19.726 16.6839 19.5714L11.6048 17.3333C11.2194 17.1634 10.7804 17.1634 10.3951 17.3333L5.31599 19.5714C4.96532 19.726 4.5783 19.4448 4.61691 19.0635L5.17602 13.5414C5.21844 13.1224 5.08278 12.7049 4.80218 12.3909L1.10404 8.25204C0.848715 7.96628 0.996541 7.51132 1.37107 7.43022L6.79568 6.25554C7.20727 6.16641 7.56243 5.90837 7.77438 5.54447L10.5679 0.74835Z" fill="white" stroke="#2C95FF"/>
</svg>
